<svg width="960" height="640" viewBox="0 0 960 640" fill="none" xmlns="http://www.w3.org/2000/svg">
  <rect width="960" height="640" rx="36" fill="#0D1514"/>
  <rect x="34" y="34" width="892" height="572" rx="28" fill="url(#paint0_linear)"/>
  <rect x="78" y="84" width="156" height="32" rx="16" fill="#D8F3EA"/>
  <rect x="78" y="138" width="392" height="28" rx="14" fill="#F5FBF8"/>
  <rect x="78" y="182" width="318" height="20" rx="10" fill="#BBD9D0"/>
  <rect x="78" y="248" width="238" height="248" rx="22" fill="#11352F"/>
  <rect x="344" y="248" width="238" height="248" rx="22" fill="#123C35"/>
  <rect x="610" y="248" width="272" height="248" rx="22" fill="#0E2B26"/>
  <rect x="104" y="286" width="112" height="18" rx="9" fill="#A9E1D3"/>
  <rect x="104" y="324" width="154" height="14" rx="7" fill="#E7F7F2"/>
  <rect x="104" y="350" width="126" height="14" rx="7" fill="#E7F7F2"/>
  <rect x="104" y="376" width="144" height="14" rx="7" fill="#E7F7F2"/>
  <rect x="104" y="414" width="82" height="82" rx="18" fill="#1CB394"/>
  <path d="M393 289H531V305H393V289Z" fill="#A9E1D3"/>
  <path d="M393 329H521V343H393V329Z" fill="#E7F7F2"/>
  <path d="M393 357H505V371H393V357Z" fill="#E7F7F2"/>
  <path d="M393 385H527V399H393V385Z" fill="#E7F7F2"/>
  <path d="M393 433H533V447H393V433Z" fill="#E7F7F2"/>
  <path d="M393 461H483V475H393V461Z" fill="#E7F7F2"/>
  <rect x="648" y="288" width="196" height="22" rx="11" fill="#A9E1D3"/>
  <rect x="648" y="332" width="146" height="14" rx="7" fill="#E7F7F2"/>
  <rect x="648" y="360" width="172" height="14" rx="7" fill="#E7F7F2"/>
  <rect x="648" y="388" width="156" height="14" rx="7" fill="#E7F7F2"/>
  <rect x="648" y="432" width="122" height="44" rx="14" fill="#1CB394"/>
  <path d="M114 450H176V462H114V450Z" fill="#E7F7F2"/>
  <path d="M140 424H152V488H140V424Z" fill="#E7F7F2"/>
  <defs>
    <linearGradient id="paint0_linear" x1="126" y1="68" x2="764" y2="606" gradientUnits="userSpaceOnUse">
      <stop stop-color="#15332D"/>
      <stop offset="1" stop-color="#204F45"/>
    </linearGradient>
  </defs>
</svg>
